<svg xmlns="http://www.w3.org/2000/svg" xmlns:xlink="http://www.w3.org/1999/xlink" width="139.935" height="89.82" viewBox="0 0 139.935 89.82">
  <defs>
    <linearGradient id="linear-gradient" x1="-0.021" y1="-0.068" x2="0.029" y2="0.99" gradientUnits="objectBoundingBox">
      <stop offset="0" stop-color="#ade2ca"/>
      <stop offset="0.989" stop-color="#4acbf2"/>
    </linearGradient>
  </defs>
  <g id="Vehicle" transform="translate(9.979 -6.829) rotate(8)">
    <g id="_Group_" data-name="&lt;Group&gt;" transform="translate(41.822 51.635)">
      <g id="_Group_2" data-name="&lt;Group&gt;">
        <g id="_Group_3" data-name="&lt;Group&gt;">
          <path id="_Path_" data-name="&lt;Path&gt;" d="M212.736,472.846H140.98V463.06h71.756Z" transform="translate(-140.98 -463.06)" fill="#172f35"/>
        </g>
      </g>
    </g>
    <g id="_Group_4" data-name="&lt;Group&gt;" transform="translate(0.12 0.65)">
      <g id="_Group_5" data-name="&lt;Group&gt;" transform="translate(43.136 57.906)">
        <g id="_Group_6" data-name="&lt;Group&gt;">
          <path id="_Path_2" data-name="&lt;Path&gt;" d="M391.34,525.83v11.982h9.869l3.956-5.735h72.069V525.83Z" transform="translate(-391.34 -525.83)" fill="#172f35"/>
        </g>
      </g>
      <g id="_Group_7" data-name="&lt;Group&gt;" transform="translate(0.328 19.274)">
        <g id="_Group_8" data-name="&lt;Group&gt;">
          <path id="_Path_3" data-name="&lt;Path&gt;" d="M45.283,176.148a.734.734,0,0,0-.762-.694c-3.9.161-22.42,1.01-26.229,2.84-2.914,1.4-6.108,6.638-8.36,10.164-1.614,2.526-5.18,8.138-5.9,11.006a51.054,51.054,0,0,0-.937,9.975l1.019,13.242H20.9l1.681-4.374a7.385,7.385,0,0,1,6.893-4.736H46.149V191.6Z" transform="translate(-3.091 -175.454)" fill="#a6bebd"/>
          <path id="Path_505" data-name="Path 505" d="M652.69,303.15l-2.67.038,2.464,3.791-1.866.024,2.615,5.21-.9-3.873,2.461-.031Z" transform="translate(-633.264 -276.856)" fill="#fff"/>
        </g>
      </g>
      <g id="_Group_9" data-name="&lt;Group&gt;" transform="translate(1.42 23.58)">
        <g id="_Group_10" data-name="&lt;Group&gt;">
          <g id="_Group_11" data-name="&lt;Group&gt;">
            <path id="_Path_4" data-name="&lt;Path&gt;" d="M25.119,214.51c-2.31,2.205-4.623,5.963-6.37,8.7-1.5,2.339-4.662,7.322-5.7,10.325-.019.056-.035.108-.053.163a2.559,2.559,0,0,0,1.539-.914c.368-.735.84-3.25,6.674-12.749C22.991,217.139,24.721,215.444,25.119,214.51Z" transform="translate(-13 -214.51)" fill="url(#linear-gradient)"/>
          </g>
        </g>
      </g>
      <g id="_Group_12" data-name="&lt;Group&gt;" transform="translate(5.96 22.596)">
        <g id="_Group_13" data-name="&lt;Group&gt;" style="isolation: isolate">
          <g id="_Group_14" data-name="&lt;Group&gt;">
            <path id="_Path_5" data-name="&lt;Path&gt;" d="M82.114,205.592c-4.29.246-13.594.873-16.567,1.892-3.872,1.328-8.219,11.575-8.424,12.025L54.193,227a.327.327,0,0,0,.311.43h7.57a2.392,2.392,0,0,0,.838-.151l19.913-7.418a2.3,2.3,0,0,0,1.5-2.157V207.68A2.091,2.091,0,0,0,82.114,205.592Z" transform="translate(-54.176 -205.589)" fill="#22364d" opacity="0.431"/>
          </g>
        </g>
        <g id="_Group_15" data-name="&lt;Group&gt;" transform="translate(0.861 0.736)">
          <g id="_Group_16" data-name="&lt;Group&gt;">
            <path id="_Path_6" data-name="&lt;Path&gt;" d="M61.98,232.636q2.808-6.3,3.75-8.353c1.426-3.115,4.753-9.493,7-10.167,2.066-.62,8.008-1.375,16.37-1.853l.08,0a1.356,1.356,0,0,1,1.352,1.356v10.255a1.245,1.245,0,0,1-.806,1.161l-14.712,1.816a4.09,4.09,0,0,0-2.92,1.816l-2.55,3.887a1.324,1.324,0,0,1-.468.085Z" transform="translate(-61.98 -212.26)" fill="url(#linear-gradient)"/>
          </g>
        </g>
        <g id="_Group_17" data-name="&lt;Group&gt;" transform="translate(8.4 2.275)" opacity="0.431" style="isolation: isolate">
          <g id="_Group_18" data-name="&lt;Group&gt;" transform="translate(0)">
            <path id="_Path_7" data-name="&lt;Path&gt;" d="M134.42,239.733l-.491.3-.53.455-.318.378-2.722,4.113,2.721-18.524.691-.239-1.362,13.7a.4.4,0,0,0,.551.413Z" transform="translate(-130.359 -226.22)" fill="#22364d"/>
          </g>
        </g>
      </g>
      <g id="_Group_19" data-name="&lt;Group&gt;" transform="translate(0.001 53.849)">
        <g id="_Group_20" data-name="&lt;Group&gt;">
          <path id="_Path_8" data-name="&lt;Path&gt;" d="M.128,489.729c-.019-.24.063-.436.185-.447L3,489.034c.225-.021.426.394.452.891l.121,2.057c.02.331-.079.61-.227.635l-2.736.472c-.122.021-.24-.161-.258-.4Z" transform="translate(-0.126 -489.033)" fill="#1f6f62"/>
        </g>
      </g>
      <g id="_Group_21" data-name="&lt;Group&gt;" transform="translate(0 64.157)">
        <g id="_Group_22" data-name="&lt;Group&gt;">
          <path id="_Path_9" data-name="&lt;Path&gt;" d="M19.442,590.267H.12V582.52H19.442Z" transform="translate(-0.12 -582.52)" fill="#172f35"/>
        </g>
      </g>
      <g id="_Group_23" data-name="&lt;Group&gt;" transform="translate(21.249 58.859)">
        <g id="_Group_24" data-name="&lt;Group&gt;">
          <g id="_Group_25" data-name="&lt;Group&gt;">
            <g id="_Group_26" data-name="&lt;Group&gt;">
              <g id="_Group_27" data-name="&lt;Group&gt;">
                <g id="_Group_28" data-name="&lt;Group&gt;">
                  <g id="_Group_29" data-name="&lt;Group&gt;">
                    <g id="_Group_30" data-name="&lt;Group&gt;">
                      <g id="_Group_31" data-name="&lt;Group&gt;">
                        <g id="_Group_32" data-name="&lt;Group&gt;">
                          <path id="_Path_10" data-name="&lt;Path&gt;" d="M192.841,544.887a10.571,10.571,0,1,0,10.722-10.416A10.571,10.571,0,0,0,192.841,544.887Z" transform="translate(-192.84 -534.47)" fill="#263238"/>
                        </g>
                      </g>
                    </g>
                  </g>
                </g>
              </g>
            </g>
          </g>
        </g>
        <g id="_Group_33" data-name="&lt;Group&gt;" transform="translate(3.149 3.149)">
          <g id="_Group_34" data-name="&lt;Group&gt;">
            <g id="_Group_35" data-name="&lt;Group&gt;">
              <g id="_Group_36" data-name="&lt;Group&gt;">
                <g id="_Group_37" data-name="&lt;Group&gt;">
                  <g id="_Group_38" data-name="&lt;Group&gt;">
                    <g id="_Group_39" data-name="&lt;Group&gt;">
                      <g id="_Group_40" data-name="&lt;Group&gt;">
                        <g id="_Group_41" data-name="&lt;Group&gt;">
                          <path id="_Path_11" data-name="&lt;Path&gt;" d="M221.4,570.347a7.421,7.421,0,1,0,7.527-7.314A7.421,7.421,0,0,0,221.4,570.347Z" transform="translate(-221.403 -563.033)" fill="#fafafa"/>
                        </g>
                      </g>
                    </g>
                  </g>
                </g>
              </g>
            </g>
          </g>
        </g>
        <g id="_Group_42" data-name="&lt;Group&gt;" transform="translate(6.049 6.05)">
          <g id="_Group_43" data-name="&lt;Group&gt;">
            <g id="_Group_44" data-name="&lt;Group&gt;">
              <g id="_Group_45" data-name="&lt;Group&gt;">
                <g id="_Group_46" data-name="&lt;Group&gt;">
                  <g id="_Group_47" data-name="&lt;Group&gt;">
                    <g id="_Group_48" data-name="&lt;Group&gt;">
                      <g id="_Group_49" data-name="&lt;Group&gt;">
                        <g id="_Group_50" data-name="&lt;Group&gt;">
                          <path id="_Path_12" data-name="&lt;Path&gt;" d="M247.706,593.792a4.521,4.521,0,1,0,4.586-4.456A4.521,4.521,0,0,0,247.706,593.792Z" transform="translate(-247.706 -589.336)" fill="#263238"/>
                        </g>
                      </g>
                    </g>
                  </g>
                </g>
              </g>
            </g>
          </g>
        </g>
      </g>
      <g id="_Group_51" data-name="&lt;Group&gt;" transform="translate(3.747 20.941)">
        <g id="_Group_52" data-name="&lt;Group&gt;">
          <g id="_Group_53" data-name="&lt;Group&gt;">
            <path id="_Path_13" data-name="&lt;Path&gt;" d="M48.418,192.534c.06-.009.147-.02.262-.034l.775-.093,3-.346,11.175-1.271c.6-.064,1.2-.144,1.831-.2a3.429,3.429,0,0,1,.958.064,3.581,3.581,0,0,1,.92.348,3.4,3.4,0,0,1,1.39,1.444,3.166,3.166,0,0,1,.32.995,3.868,3.868,0,0,1,.047.53v.531c0,2.847,0,5.9.006,9.143,0,6.479,0,13.684.008,21.383v.055H57.492a12.332,12.332,0,0,0-1.978.093,7.709,7.709,0,0,0-6.1,4.867,6.033,6.033,0,0,0-.241.722,5.93,5.93,0,0,0-.169.74l-.058.374-.028.187-.009.189-.02.377-.01.187v.024c.051-.05-.068.074-.058.061H45.655l-11.5,0H34.1v-.054c0-3.323,0-6.527,0-9.588q0-2.3,0-4.483,0-1.093,0-2.157c0-.354,0-.7,0-1.056s.033-.7.074-1.042a10.455,10.455,0,0,1,1.249-3.8q.911-1.712,1.76-3.3l3.121-5.858,2.536-4.755.536-1c.088-.16.164-.321.258-.471a4.353,4.353,0,0,1,.3-.421,6.268,6.268,0,0,1,1.337-1.243,6.7,6.7,0,0,1,2.287-.995,5.522,5.522,0,0,1,.852-.139c-.049.009-.12.02-.216.033-.143.022-.356.058-.632.123A6.746,6.746,0,0,0,45.3,193.7a6.23,6.23,0,0,0-1.323,1.239,4.484,4.484,0,0,0-.292.419c-.092.148-.168.311-.256.47q-.255.485-.531,1.006l-2.524,4.763c-.942,1.777-1.981,3.738-3.108,5.863l-1.755,3.308a10.383,10.383,0,0,0-1.234,3.77c-.04.34-.065.685-.072,1.033s0,.7,0,1.054q0,1.063,0,2.157,0,2.185,0,4.483c0,3.061,0,6.265,0,9.588l-.054-.053,11.5,0h3.169c.015-.012-.107.1-.055.052v-.023l.01-.191.019-.383.01-.192.029-.19.058-.379a6.107,6.107,0,0,1,.171-.751,6.285,6.285,0,0,1,.245-.733,7.831,7.831,0,0,1,6.184-4.939,12.506,12.506,0,0,1,2-.094h11.56l-.056.056c0-7.7.006-14.9.008-21.383,0-3.238,0-6.3.006-9.143a6.343,6.343,0,0,0-.044-1.049,3.1,3.1,0,0,0-.311-.97,3.33,3.33,0,0,0-1.355-1.414,3.552,3.552,0,0,0-.9-.342,3.361,3.361,0,0,0-.937-.063c-.622.053-1.234.132-1.828.2L52.457,192.1l-3,.327-.776.083C48.566,192.522,48.478,192.53,48.418,192.534Z" transform="translate(-34.1 -190.578)" fill="none" stroke="#030023" stroke-linecap="round" stroke-width="0.1"/>
          </g>
        </g>
      </g>
      <g id="_Group_54" data-name="&lt;Group&gt;" transform="translate(29.223 44.764)">
        <g id="_Group_55" data-name="&lt;Group&gt;">
          <g id="_Group_56" data-name="&lt;Group&gt;">
            <g id="_Group_57" data-name="&lt;Group&gt;">
              <g id="_Group_58" data-name="&lt;Group&gt;">
                <g id="_Group_59" data-name="&lt;Group&gt;">
                  <g id="_Group_60" data-name="&lt;Group&gt;">
                    <path id="_Path_14" data-name="&lt;Path&gt;" d="M271.168,409.144c0-.005.061-.005.172-.025a1.173,1.173,0,0,0,.453-.181,1.161,1.161,0,0,0,.462-.6,1.269,1.269,0,0,0,.058-.475,1.161,1.161,0,0,0-.133-.514,1.144,1.144,0,0,0-.995-.605l-1.454,0-3.335,0a1.129,1.129,0,0,0-1.12,1,1.261,1.261,0,0,0,.138.762,1.146,1.146,0,0,0,.552.491,1.712,1.712,0,0,0,.718.087l.707,0,1.268.007,1.836.018.5.011a1.071,1.071,0,0,1,.174.011.922.922,0,0,1-.174.011l-.5.011-1.836.018-1.268.007-.707,0c-.124,0-.241.006-.373,0a1.234,1.234,0,0,1-.385-.087,1.249,1.249,0,0,1-.606-.534,1.37,1.37,0,0,1-.153-.827,1.241,1.241,0,0,1,1.229-1.1l3.335,0,1.457.007a1.226,1.226,0,0,1,1.063.662,1.24,1.24,0,0,1,.134.549,1.346,1.346,0,0,1-.071.5,1.2,1.2,0,0,1-.5.617,1.161,1.161,0,0,1-.474.166A.723.723,0,0,1,271.168,409.144Z" transform="translate(-265.157 -406.64)" fill="none" stroke="#030023" stroke-linecap="round" stroke-width="0.1"/>
                  </g>
                </g>
              </g>
            </g>
          </g>
        </g>
      </g>
      <g id="_Group_61" data-name="&lt;Group&gt;" transform="translate(18.442 56.415)">
        <g id="_Group_62" data-name="&lt;Group&gt;">
          <path id="_Path_15" data-name="&lt;Path&gt;" d="M169.14,527.859l-1.76-.128c.461-6.318,1.136-10.1,2.063-11.555a7.047,7.047,0,0,1,5.517-3.641,26.012,26.012,0,0,1,5.451-.165l.438.018c3.678.143,11.383.015,11.46.014l.03,1.764c-.078,0-7.832.129-11.56-.015l-.44-.018a24.705,24.705,0,0,0-5.082.141,5.291,5.291,0,0,0-4.327,2.85C170.506,517.792,169.706,520.075,169.14,527.859Z" transform="translate(-167.38 -512.306)" fill="#172f35"/>
        </g>
      </g>
      <g id="_Group_63" data-name="&lt;Group&gt;" transform="translate(44.324 0)">
        <g id="_Group_64" data-name="&lt;Group&gt;">
          <path id="_Path_16" data-name="&lt;Path&gt;" d="M488.89,58.5H402.01V.65h86.88Z" transform="translate(-402.01 -0.65)" fill="#1f6f62"/>
          <path id="_Compound_Path_" data-name="&lt;Compound Path&gt;" d="M392.933,371.71a.409.409,0,0,1-.208.567l-6.318,2.579a.408.408,0,0,0,.028.767l1.794.584a.408.408,0,0,0,.252,0l1.805-.584a.408.408,0,0,1,.488.2l.019.037a.408.408,0,0,1-.232.576l-2.033.684a.406.406,0,0,1-.256,0l-3.982-1.3a.411.411,0,0,0-.281.011l-7.048,2.876a.41.41,0,0,0-.123.677,6.388,6.388,0,0,1,.983,1.221.4.4,0,0,0,.5.155l6.1-2.57a.408.408,0,0,1,.52.187l.021.04a.409.409,0,0,1-.2.565l-6.066,2.555a.406.406,0,0,0-.233.488,5.664,5.664,0,0,1,.236,1.616v3.118h-.442a.426.426,0,0,0-.109.015l-.013,0a.405.405,0,0,1-.482-.233,5.465,5.465,0,0,0-.664-1.163,5.618,5.618,0,0,0-4.477-2.223H368.7a.408.408,0,0,0-.315.151,7.759,7.759,0,0,1-7.633,2.445l0,.007-.288-.077-.013,0h0l-.062-.016a6.759,6.759,0,0,1-.832-.161l-1.963-.526,0-.007c-.1-.024-.2-.045-.3-.072l.269-.811h0l.027-.079,1.335.358a.434.434,0,0,0,.059.012c2.544.33,3.315-.786,3.71-1.979a3.113,3.113,0,0,0-2.355-3.916l-9.079-3.264a.409.409,0,0,1-.249-.513l.012-.035a.408.408,0,0,1,.526-.256l2.457.883a.408.408,0,0,0,.483-.6l-.745-1.174a.407.407,0,0,0-.223-.171l-6.814-2.135a.409.409,0,0,1-.265-.518l.013-.037a.409.409,0,0,1,.509-.262l7.188,2.237a.4.4,0,0,1,.223.171l2.109,3.328-.063.032,4.177,1.5.022.007a3.949,3.949,0,0,1,2.977,4.966,4.5,4.5,0,0,1-.563,1.157.409.409,0,0,0,.5.615,4.451,4.451,0,0,0,2.476-2.621c.765-2.308-.766-4.763-3.412-5.472L358.63,375a.409.409,0,0,1-.259-.516l.012-.036a.408.408,0,0,1,.517-.259l3.965,1.321c3.144.843,4.958,3.77,4.045,6.526a4.853,4.853,0,0,1-.292.692.409.409,0,0,0,.654.472,5.557,5.557,0,0,0,1.348-2.172c1-3.021-.917-6.209-4.274-7.109l-20.283-6.284a.409.409,0,0,1-.267-.519l.012-.036a.408.408,0,0,1,.508-.262l20.3,6.289a7.023,7.023,0,0,1,4.748,4,.413.413,0,0,0,.379.259h1.588a.4.4,0,0,0,.239-.079,7.513,7.513,0,0,1,1.529-.866l21.219-8.721a.409.409,0,0,1,.518.189l.021.039a.408.408,0,0,1-.207.566l-21.15,8.693q-.3.126-.575.276a7.44,7.44,0,0,1,2.415.82.406.406,0,0,0,.362.019l.137-.06,8.238-3.363.009-.021.024.008,8.289-3.383a.408.408,0,0,1,.516.189Zm-19.606,10.658a.408.408,0,0,0,.154-.8,6.642,6.642,0,0,0-1.77-.238H369.79a.408.408,0,0,0-.382.254,6.228,6.228,0,0,1-.476.959l.07-.082a.408.408,0,0,1,.312-.144h3.192A6.569,6.569,0,0,1,373.327,382.368Zm-1.616-4.157h-1.528a.408.408,0,0,0-.4.462,5.866,5.866,0,0,1,.011,1.356.407.407,0,0,0,.4.454h1.515a7.34,7.34,0,0,1,5.112,2.009.408.408,0,0,0,.67-.422A6.007,6.007,0,0,0,371.71,378.211Z" transform="translate(-325.826 -347.895)" fill="#fff" fill-rule="evenodd"/>
        </g>
      </g>
      <g id="_Group_65" data-name="&lt;Group&gt;" transform="translate(45.184 1.248)">
        <g id="_Group_66" data-name="&lt;Group&gt;">
          <g id="_Group_67" data-name="&lt;Group&gt;">
            <path id="_Path_17" data-name="&lt;Path&gt;" d="M494.886,67.423c0-.372-.018-21.589-.045-55.394l.045.045-84.9.012h-.007l.057-.057c0,19.69,0,38.432,0,55.394l-.053-.053,84.909.053-84.909.053h-.053v-.053c0-16.962,0-35.7,0-55.394V11.97h.064l84.9.012h.046v.046C494.9,45.834,494.886,67.051,494.886,67.423Z" transform="translate(-409.92 -11.97)" fill="none" stroke="#030023" stroke-linecap="round" stroke-width="0.1"/>
          </g>
        </g>
      </g>
      <g id="_Group_68" data-name="&lt;Group&gt;" transform="translate(23.302 27.392)">
        <g id="_Group_69" data-name="&lt;Group&gt;">
          <g id="_Group_70" data-name="&lt;Group&gt;">
            <path id="_Path_18" data-name="&lt;Path&gt;" d="M220.11,249.087s-.025.026-.08.067l-.243.175c-.213.15-.523.364-.907.624-.771.522-1.842,1.23-3.037,2s-2.287,1.443-3.083,1.925c-.4.24-.721.433-.946.563l-.26.148a.366.366,0,0,1-.095.045s.026-.026.083-.065l.249-.166.926-.594c.8-.508,1.874-1.194,3.064-1.953l3.053-1.967.927-.594.255-.157A.36.36,0,0,1,220.11,249.087Z" transform="translate(-211.459 -249.086)" fill="#fafafa"/>
          </g>
        </g>
      </g>
      <g id="_Group_71" data-name="&lt;Group&gt;" transform="translate(19.541 28.388)">
        <g id="_Group_72" data-name="&lt;Group&gt;">
          <g id="_Group_73" data-name="&lt;Group&gt;">
            <path id="_Path_19" data-name="&lt;Path&gt;" d="M186,258.117s-.025.026-.08.067l-.243.175c-.213.15-.523.364-.907.624-.77.522-1.841,1.23-3.037,2s-2.287,1.443-3.082,1.925c-.4.241-.721.433-.946.563l-.261.148a.349.349,0,0,1-.095.045.375.375,0,0,1,.083-.065l.249-.165.927-.6,3.063-1.953,3.053-1.967.927-.593.256-.158A.348.348,0,0,1,186,258.117Z" transform="translate(-177.349 -258.116)" fill="#fafafa"/>
          </g>
        </g>
      </g>
      <g id="_Group_74" data-name="&lt;Group&gt;" transform="translate(9.188 29.836)">
        <g id="_Group_75" data-name="&lt;Group&gt;">
          <g id="_Group_76" data-name="&lt;Group&gt;">
            <path id="_Path_20" data-name="&lt;Path&gt;" d="M83.888,276.219a.719.719,0,0,1-.067-.194c-.036-.126-.085-.311-.138-.54a7.845,7.845,0,0,1-.234-1.829,3.96,3.96,0,0,1,.42-1.8,2.621,2.621,0,0,1,.312-.467c.087-.1.142-.149.148-.144a7.015,7.015,0,0,0-.387.648,4.231,4.231,0,0,0-.378,1.761,9.382,9.382,0,0,0,.2,1.812A5.74,5.74,0,0,1,83.888,276.219Z" transform="translate(-83.449 -271.247)" fill="#fafafa"/>
          </g>
        </g>
      </g>
      <g id="_Group_77" data-name="&lt;Group&gt;" transform="translate(18.836 54.721)">
        <g id="_Group_78" data-name="&lt;Group&gt;">
          <g id="_Group_79" data-name="&lt;Group&gt;">
            <path id="_Path_21" data-name="&lt;Path&gt;" d="M176.931,496.943c0,.024-.424.085-1.085.3a8.568,8.568,0,0,0-1.126.456,8.513,8.513,0,0,0-2.387,1.753,8.485,8.485,0,0,0-.773.937c-.4.567-.587.957-.608.946a1.475,1.475,0,0,1,.122-.278,3.207,3.207,0,0,1,.169-.313c.072-.119.147-.259.249-.4a7.811,7.811,0,0,1,.763-.964,8.058,8.058,0,0,1,2.418-1.775,7.709,7.709,0,0,1,1.148-.44c.166-.055.322-.085.458-.118a3.107,3.107,0,0,1,.35-.067A1.619,1.619,0,0,1,176.931,496.943Z" transform="translate(-170.952 -496.94)" fill="#fafafa"/>
          </g>
        </g>
      </g>
      <g id="_Group_80" data-name="&lt;Group&gt;" transform="translate(95.858 57.334)">
        <g id="_Group_81" data-name="&lt;Group&gt;" transform="translate(3.477 1.525)">
          <g id="_Group_82" data-name="&lt;Group&gt;">
            <g id="_Group_83" data-name="&lt;Group&gt;">
              <g id="_Group_84" data-name="&lt;Group&gt;">
                <g id="_Group_85" data-name="&lt;Group&gt;">
                  <g id="_Group_86" data-name="&lt;Group&gt;">
                    <g id="_Group_87" data-name="&lt;Group&gt;">
                      <g id="_Group_88" data-name="&lt;Group&gt;">
                        <g id="_Group_89" data-name="&lt;Group&gt;">
                          <g id="_Group_90" data-name="&lt;Group&gt;">
                            <path id="_Path_22" data-name="&lt;Path&gt;" d="M901.041,544.887a10.571,10.571,0,1,0,10.722-10.416A10.57,10.57,0,0,0,901.041,544.887Z" transform="translate(-901.04 -534.47)" fill="#263238"/>
                          </g>
                        </g>
                      </g>
                    </g>
                  </g>
                </g>
              </g>
            </g>
          </g>
          <g id="_Group_91" data-name="&lt;Group&gt;" transform="translate(0 10.391)">
            <g id="_Group_92" data-name="&lt;Group&gt;">
              <g id="_Group_93" data-name="&lt;Group&gt;">
                <g id="_Group_94" data-name="&lt;Group&gt;">
                  <g id="_Group_95" data-name="&lt;Group&gt;">
                    <g id="_Group_96" data-name="&lt;Group&gt;">
                      <g id="_Group_97" data-name="&lt;Group&gt;">
                        <g id="_Group_98" data-name="&lt;Group&gt;">
                          <g id="_Group_99" data-name="&lt;Group&gt;">
                            <path id="_Path_23" data-name="&lt;Path&gt;" d="M901.042,628.71c0,.009,0,.018,0,.026a10.571,10.571,0,1,0,21.139.305c0-.009,0-.018,0-.028Z" transform="translate(-901.04 -628.71)" fill="#263238"/>
                          </g>
                        </g>
                      </g>
                    </g>
                  </g>
                </g>
              </g>
            </g>
          </g>
          <g id="_Group_100" data-name="&lt;Group&gt;" transform="translate(3.149 3.149)">
            <g id="_Group_101" data-name="&lt;Group&gt;">
              <g id="_Group_102" data-name="&lt;Group&gt;">
                <g id="_Group_103" data-name="&lt;Group&gt;">
                  <g id="_Group_104" data-name="&lt;Group&gt;">
                    <g id="_Group_105" data-name="&lt;Group&gt;">
                      <g id="_Group_106" data-name="&lt;Group&gt;">
                        <g id="_Group_107" data-name="&lt;Group&gt;">
                          <g id="_Group_108" data-name="&lt;Group&gt;">
                            <path id="_Path_24" data-name="&lt;Path&gt;" d="M929.6,570.347a7.421,7.421,0,1,0,7.527-7.314A7.421,7.421,0,0,0,929.6,570.347Z" transform="translate(-929.603 -563.033)" fill="#fafafa"/>
                          </g>
                        </g>
                      </g>
                    </g>
                  </g>
                </g>
              </g>
            </g>
          </g>
          <g id="_Group_109" data-name="&lt;Group&gt;" transform="translate(6.05 6.05)">
            <g id="_Group_110" data-name="&lt;Group&gt;">
              <g id="_Group_111" data-name="&lt;Group&gt;">
                <g id="_Group_112" data-name="&lt;Group&gt;">
                  <g id="_Group_113" data-name="&lt;Group&gt;">
                    <g id="_Group_114" data-name="&lt;Group&gt;">
                      <g id="_Group_115" data-name="&lt;Group&gt;">
                        <g id="_Group_116" data-name="&lt;Group&gt;">
                          <g id="_Group_117" data-name="&lt;Group&gt;">
                            <path id="_Path_25" data-name="&lt;Path&gt;" d="M955.906,593.792a4.521,4.521,0,1,0,4.586-4.456A4.52,4.52,0,0,0,955.906,593.792Z" transform="translate(-955.906 -589.336)" fill="#263238"/>
                          </g>
                        </g>
                      </g>
                    </g>
                  </g>
                </g>
              </g>
            </g>
          </g>
        </g>
        <g id="_Group_118" data-name="&lt;Group&gt;">
          <g id="_Group_119" data-name="&lt;Group&gt;">
            <path id="_Path_26" data-name="&lt;Path&gt;" d="M869.659,535.631q-1.611-14.991,13.927-14.991c14.336,0,14.016,12.9,13.882,14.891h-2.248q1.145-12.709-11.633-12.71T871.92,535.789Q870.976,535.739,869.659,535.631Z" transform="translate(-869.508 -520.64)" fill="#172f35"/>
          </g>
        </g>
      </g>
      <g id="_Group_120" data-name="&lt;Group&gt;" transform="translate(6.104 29.315)">
        <g id="_Group_121" data-name="&lt;Group&gt;" transform="translate(2.59)">
          <g id="_Group_122" data-name="&lt;Group&gt;">
            <path id="_Path_27" data-name="&lt;Path&gt;" d="M81.592,277.035H80.73a1.76,1.76,0,0,1-1.76-1.76v-7a1.76,1.76,0,0,1,1.76-1.76h.862a1.76,1.76,0,0,1,1.76,1.76v7A1.76,1.76,0,0,1,81.592,277.035Z" transform="translate(-78.97 -266.52)" fill="#263238"/>
          </g>
        </g>
        <g id="_Group_123" data-name="&lt;Group&gt;" transform="translate(0.556 3.898)">
          <g id="_Group_124" data-name="&lt;Group&gt;">
            <path id="_Path_28" data-name="&lt;Path&gt;" d="M60.741,314.99H60.52V303.87a2,2,0,0,1,2-2h.528v.221H62.52a1.782,1.782,0,0,0-1.78,1.78Z" transform="translate(-60.52 -301.87)" fill="#263238"/>
          </g>
        </g>
        <g id="_Group_125" data-name="&lt;Group&gt;" transform="translate(1.664 5.247)">
          <g id="_Group_126" data-name="&lt;Group&gt;">
            <path id="_Path_29" data-name="&lt;Path&gt;" d="M71.183,325.895l-.613-10.4a1.309,1.309,0,0,1,1.307-1.386v.221a1.09,1.09,0,0,0-1.087,1.153l.613,10.4Z" transform="translate(-70.568 -314.11)" fill="#263238"/>
          </g>
        </g>
        <g id="_Group_127" data-name="&lt;Group&gt;" transform="translate(0 16.015)">
          <g id="_Group_128" data-name="&lt;Group&gt;">
            <path id="_Path_30" data-name="&lt;Path&gt;" d="M58.453,415.213H55.48V411.77h2.973Z" transform="translate(-55.48 -411.77)" fill="#263238"/>
          </g>
        </g>
        <g id="_Group_129" data-name="&lt;Group&gt;" transform="translate(0.666 9.482)">
          <g id="_Group_130" data-name="&lt;Group&gt;">
            <path id="_Path_31" data-name="&lt;Path&gt;" d="M62.73,352.741H61.52v-.221h1.21Z" transform="translate(-61.52 -352.52)" fill="#263238"/>
          </g>
        </g>
      </g>
    </g>
  </g>
</svg>
