<svg id="OBJECTS" xmlns="http://www.w3.org/2000/svg" xmlns:xlink="http://www.w3.org/1999/xlink" width="258.804" height="200" viewBox="0 0 258.804 200">
  <defs>
    <linearGradient id="linear-gradient" x1="-0.021" y1="-0.068" x2="0.029" y2="0.99" gradientUnits="objectBoundingBox">
      <stop offset="0" stop-color="#ade2ca"/>
      <stop offset="0.989" stop-color="#4acbf2"/>
    </linearGradient>
    <linearGradient id="linear-gradient-2" x1="-0.238" y1="-0.041" x2="-0.076" y2="0.829" xlink:href="#linear-gradient"/>
  </defs>
  <g id="_Group_" data-name="&lt;Group&gt;" transform="translate(0 0)">
    <path id="_Path_" data-name="&lt;Path&gt;" d="M532.694,575.18a4.133,4.133,0,0,1-.629-.21,5.318,5.318,0,0,1-.817-.429c-.112-.071-.221-.145-.331-.227-3.555-2.6-6.085-10.017-6.031-18.753.074-10.894,4.14-19.709,9.086-19.69l.055,0v0l10.821.107c4.949.019,8.9,8.864,8.829,19.759s-4.14,19.71-9.086,19.69c-.068,0-5.684-.1-5.749-.1l-4.927-.019c-.066,0-.131.011-.2.011H533.7a4.257,4.257,0,0,1-.833-.093C532.806,575.21,532.752,575.2,532.694,575.18Z" transform="translate(-438.264 -389.435)" fill="#263238"/>
    <path id="_Path_2" data-name="&lt;Path&gt;" d="M582.632,513.477c-6.175.53-13.365,4.386-14.07,6.632s-10.818,3.274-15.231,2.2-18.846-.257-23.051-.314-22.833-3.637-24.191-2.32.262,0-7.949-.109q-8.21-.111-19.177-3.754a30.639,30.639,0,0,0-6.143-4.888q-2.586-1.418-2.41-14.236l7.124-5.913q47.509-11.722,57.894-8.777c10.381,2.948,23.827,1.73,31.932,9.252Q575.464,498.772,582.632,513.477Z" transform="translate(-452.33 -349.855)" fill="#172f35"/>
    <path id="_Path_3" data-name="&lt;Path&gt;" d="M198.815-.03l104.13,4.3q-12.973,122.5-11.821,161.887l-93.1,2.708Q180.686,75.675,182.073,42.13T198.815-.03Z" transform="translate(-93.829 0.03)" fill="#c54f46"/>
    <path id="_Path_4" data-name="&lt;Path&gt;" d="M198.815-.03l104.13,4.3q-12.973,122.5-11.821,161.887l-93.1,2.708Q180.686,75.675,182.073,42.13T198.815-.03Z" transform="translate(-93.829 0.03)" fill="#1f6f62"/>
    <path id="_Path_5" data-name="&lt;Path&gt;" d="M290.835,180.141c.3-38.542,8.37-120.506,11.072-146.932L214.079,29.58l-.719,152.812Z" transform="translate(-101.368 -21.489)" fill="none" stroke="#030023" stroke-linecap="round" stroke-width="1"/>
    <g id="_Group_2" data-name="&lt;Group&gt;" transform="translate(23.231 144.172)">
      <path id="_Path_6" data-name="&lt;Path&gt;" d="M805.763,527.59c4.949.019,8.9,8.864,8.829,19.756s-4.14,19.71-9.086,19.693-8.9-8.864-8.829-19.756S800.817,527.574,805.763,527.59Z" transform="translate(-796.677 -527.59)" fill="#132539"/>
      <path id="_Path_7" data-name="&lt;Path&gt;" d="M765.963,527.59l.055,0v0l10.821.109c4.946.019,8.9,8.864,8.829,19.756s-4.14,19.709-9.086,19.693c-.068,0-5.684-.1-5.749-.1l-4.927-.016c-.066,0-.134.011-.2.011-4.946-.019-8.9-8.864-8.829-19.756S761.017,527.574,765.963,527.59Z" transform="translate(-756.876 -527.59)" fill="#263238"/>
      <path id="_Path_8" data-name="&lt;Path&gt;" d="M811.133,543.96c3.823.014,6.88,6.853,6.826,15.277s-3.2,15.239-7.025,15.226-6.883-6.853-6.826-15.277S807.308,543.946,811.133,543.96Z" transform="translate(-802.074 -539.487)" fill="#172f35"/>
      <path id="_Path_9" data-name="&lt;Path&gt;" d="M812.818,572.329c-.038,5.7,1.784,10.321,4.071,10.329s4.17-4.6,4.205-10.3-1.784-10.321-4.071-10.329S812.854,566.634,812.818,572.329Z" transform="translate(-807.59 -552.619)" fill="#172f35"/>
      <path id="_Compound_Path_" data-name="&lt;Compound Path&gt;" d="M802.668,556.867c-.06,8.9,3.172,16.135,7.217,16.149s7.367-7.192,7.424-16.1-3.172-16.135-7.214-16.149S802.725,547.962,802.668,556.867Zm2.4.008c.038-5.99,2.276-10.837,5-10.826s4.894,4.872,4.853,10.862-2.276,10.837-4.995,10.826S805.026,562.865,805.064,556.875Z" transform="translate(-801.03 -537.169)" fill="#ece8e2" fill-rule="evenodd"/>
      <path id="_Path_10" data-name="&lt;Path&gt;" d="M823.859,582.971c-.025,3.481,1.186,6.307,2.427,6.307s2.265-2.82,2.293-6.3-.959-6.3-2.2-6.3S823.886,579.49,823.859,582.971Z" transform="translate(-818.089 -563.259)" fill="#fff"/>
      <path id="_Path_11" data-name="&lt;Path&gt;" d="M823.893,596.7c.639.508,1.112,1.853,1.806,1.836.5-.014.874-.869,1.309-1.366a1.264,1.264,0,0,1,1.56-.383c.008.235.011.473.011.716-.027,3.484-1.055,6.307-2.293,6.3s-2.451-2.825-2.426-6.307C823.863,597.224,823.877,596.959,823.893,596.7Z" transform="translate(-818.091 -577.785)" fill="#1f6f62"/>
    </g>
    <path id="_Path_12" data-name="&lt;Path&gt;" d="M588.684,159.824l-7.446-.9L563.05,9.135,668.035-.03l-.8,168.9-60.148-6.826c-1.109-1.637-4.2-10.651-5.246-13.373-2.32-6.039-5.331-5.681-8.93-6.129s-5.987,7.692-5.244,11.908C588.022,156.422,588.356,158.469,588.684,159.824Z" transform="translate(-563.05 0.03)" fill="#fd795a"/>
    <path id="_Path_13" data-name="&lt;Path&gt;" d="M588.684,159.824l-7.446-.9L563.05,9.135,668.035-.03l-.8,168.9-60.148-6.826c-1.109-1.637-4.2-10.651-5.246-13.373-2.32-6.039-5.331-5.681-8.93-6.129s-5.987,7.692-5.244,11.908C588.022,156.422,588.356,158.469,588.684,159.824Z" transform="translate(-563.05 0.03)" fill="#1f6f62"/>
    <path id="_Path_14" data-name="&lt;Path&gt;" d="M680.147,31.83,591.62,39.118,606.3,160.05a10.342,10.342,0,0,1,6.154-2.137,10.044,10.044,0,0,1,1.342.077c.32.041.631.071.937.1,3.667.38,10.49,1.085,14.277,10.949.279.719.694,1.866,1.178,3.2s1.363,3.763,2.134,5.771l47.111,5.255Z" transform="translate(-582.969 -23.124)" fill="none" stroke="#030023" stroke-linecap="round" stroke-width="1"/>
    <g id="_Group_3" data-name="&lt;Group&gt;" transform="translate(109.049 57.909)">
      <path id="_Path_15" data-name="&lt;Path&gt;" d="M410.96,535.545c-.637-5.55,1.292-11.067,3.607-16.149,1.388-3.058,3.172-6.277,6.274-7.558,3.872-1.6,8.353.473,11.389,3.358,6.951,6.607,9.056,17.606,5.577,26.541-1.465,3.763-19.72.894-23.549,2.175Q411.8,542.879,410.96,535.545Z" transform="translate(-401.926 -429.474)" fill="#172f35"/>
      <path id="_Path_16" data-name="&lt;Path&gt;" d="M48.7,564.56h.005l.06,0v0l13.269.137c6.066.025,10.919,10.252,10.84,22.841s-5.061,22.775-11.124,22.748c-.085,0-6.971-.117-7.05-.123l-6.042-.025c-.082,0-.161.011-.243.011h0c-6.066-.027-10.919-10.252-10.84-22.844S42.638,564.533,48.7,564.56Z" transform="translate(66.646 -468.195)" fill="#263238"/>
      <g id="_Group_4" data-name="&lt;Group&gt;" transform="translate(11.694 96.215)">
        <path id="_Path_17" data-name="&lt;Path&gt;" d="M436.124,564.01c6.063.027,10.916,10.255,10.837,22.844S441.9,609.626,435.837,609.6,424.918,599.349,425,586.758,430.058,563.985,436.124,564.01Z" transform="translate(-424.996 -564.01)" fill="#132539"/>
        <path id="_Path_18" data-name="&lt;Path&gt;" d="M387.324,564.01c.022,0,.044.005.066.005v-.005l13.266.139c6.066.025,10.919,10.252,10.84,22.841s-5.061,22.775-11.124,22.748c-.082,0-6.968-.117-7.05-.123l-6.039-.025c-.082,0-.164.011-.246.011-6.066-.027-10.919-10.252-10.84-22.844S381.258,563.985,387.324,564.01Z" transform="translate(-376.197 -564.01)" fill="#263238"/>
        <path id="_Path_19" data-name="&lt;Path&gt;" d="M442.71,582.93c4.689.019,8.441,7.927,8.381,17.663s-3.913,17.611-8.6,17.589-8.443-7.927-8.381-17.663S438.018,582.908,442.71,582.93Z" transform="translate(-431.615 -577.76)" fill="#172f35"/>
        <path id="_Path_20" data-name="&lt;Path&gt;" d="M444.778,615.717c-.041,6.583,2.2,11.93,5,11.941s5.11-5.315,5.151-11.9-2.2-11.93-5-11.941S444.819,609.135,444.778,615.717Z" transform="translate(-438.37 -592.942)" fill="#172f35"/>
        <path id="_Compound_Path_2" data-name="&lt;Compound Path&gt;" d="M432.328,597.835c-.066,10.293,3.9,18.652,8.859,18.674s9.031-8.3,9.1-18.595-3.9-18.652-8.862-18.674S432.394,587.544,432.328,597.835Zm3.145.014c.041-6.684,2.686-12.091,5.908-12.078s5.8,5.443,5.755,12.13-2.686,12.094-5.908,12.078S435.432,604.535,435.473,597.848Z" transform="translate(-430.321 -575.078)" fill="#ece8e2" fill-rule="evenodd"/>
        <path id="_Path_21" data-name="&lt;Path&gt;" d="M458.328,628.009c-.03,4.025,1.456,7.293,2.978,7.293s2.773-3.26,2.8-7.282-1.178-7.288-2.7-7.29S458.358,623.984,458.328,628.009Z" transform="translate(-451.253 -605.231)" fill="#fff"/>
        <path id="_Path_22" data-name="&lt;Path&gt;" d="M458.363,643.88c.787.587,1.366,2.142,2.216,2.123.615-.014,1.074-1.006,1.607-1.577a1.611,1.611,0,0,1,1.913-.443c.008.273.014.549.011.831-.03,4.022-1.284,7.285-2.8,7.282s-3.008-3.268-2.978-7.293C458.331,644.489,458.344,644.183,458.363,643.88Z" transform="translate(-451.252 -622.025)" fill="#1f6f62"/>
      </g>
      <path id="_Path_23" data-name="&lt;Path&gt;" d="M8.633,214.72a248.533,248.533,0,0,1,31.12-2.711c9-.087,89.752-1.249,96.176,6.378q1.025,1.808,2.768,5.416c1.743,3.61,12.7,37.509,14.064,39.826s2.544,3.254,3.151,9.922c.41,4.514-.1,29.514-.47,45.206a13.186,13.186,0,0,1-13.182,12.876c-28.005.008-92.044.019-92.342-.008l-4.826-.454a40.823,40.823,0,0,1-5.421-11.755c-1.9-6.583-4.555-16.157-8.1-19.327s-7.55-1.582-9.433,4.949c-1.765,6.129-4.287,14.939-1.175,21.3a.719.719,0,0,1-.694,1.057L9.7,326.247Z" transform="translate(-8.633 -211.897)" fill="#fd795a"/>
      <path id="_Path_24" data-name="&lt;Path&gt;" d="M8.633,214.72a248.533,248.533,0,0,1,31.12-2.711c9-.087,89.752-1.249,96.176,6.378q1.025,1.808,2.768,5.416c1.743,3.61,12.7,37.509,14.064,39.826s2.544,3.254,3.151,9.922c.41,4.514-.1,29.514-.47,45.206a13.186,13.186,0,0,1-13.182,12.876c-28.005.008-92.044.019-92.342-.008l-4.826-.454a40.823,40.823,0,0,1-5.421-11.755c-1.9-6.583-4.555-16.157-8.1-19.327s-7.55-1.582-9.433,4.949c-1.765,6.129-4.287,14.939-1.175,21.3a.719.719,0,0,1-.694,1.057L9.7,326.247Z" transform="translate(-8.633 -211.897)" fill="#a6bebd"/>
      <path id="_Path_25" data-name="&lt;Path&gt;" d="M26.213,256.623l2.205,8.389,5.861,22.243a4.838,4.838,0,0,0,4.708,4.9L69,293.031l8.681.246,19.1.549,6.342.172h.008l2.325.074,6.334.189,2.814.082,1.951.055,8.667.246,5.768.164a1.968,1.968,0,0,0,1.91-2.6q-10.157-27.7-13.111-35.648a3.347,3.347,0,0,0-3.017-2.183c-.219-.005-.454-.019-.694-.025-4.107-.15-12.031-.353-21.546-.568-3.339-.077-6.875-.153-10.523-.235l-2.732-.063c-2.12-.044-4.276-.1-6.446-.142-9.545-.208-19.248-.424-27.579-.642-7.34-.186-13.594-.369-17.709-.533A3.372,3.372,0,0,0,26.213,256.623Z" transform="translate(9.676 -241.159)" fill="url(#linear-gradient)"/>
      <path id="_Path_26" data-name="&lt;Path&gt;" d="M26.213,256.623l2.205,8.389,5.861,22.243a4.838,4.838,0,0,0,4.708,4.9L69,293.031l8.681.246,19.1.549,6.342.172h.008l2.325.074,6.334.189,2.814.082,1.951.055,8.667.246,5.768.164a1.968,1.968,0,0,0,1.91-2.6q-10.157-27.7-13.111-35.648a3.347,3.347,0,0,0-3.017-2.183c-.219-.005-.454-.019-.694-.025a7.876,7.876,0,0,0,.249,1.5c1.877,7.667,4.047,15.275,6.063,22.912q.861,3.226,1.711,6.465c.161.6,1.279,6.124,1.637,6.165l-19.155-2.074c-3.73-.4-7.752-.934-10.474-3.525-2.388-2.279-3.268-5.675-4.044-8.889q-1.906-7.919-3.812-15.84c-.555-2.29-1.17-4.7-2.814-6.389a7.327,7.327,0,0,0-1.429-1.126l-2.732-.063c-2.12-.044-4.276-.1-6.446-.142-9.545-.208-19.248-.424-27.579-.642-7.34-.186-13.594-.369-17.709-.533A3.372,3.372,0,0,0,26.213,256.623Z" transform="translate(9.676 -241.159)" fill="#22364d" opacity="0.431"/>
      <g id="_Group_5" data-name="&lt;Group&gt;" transform="translate(53.754 58.894)">
        <path id="_Path_27" data-name="&lt;Path&gt;" d="M34.306,443.4l9.577.134a1.69,1.69,0,0,0,1.711-1.667l.131-9.539a1.686,1.686,0,0,0-1.664-1.711l-9.58-.134a1.686,1.686,0,0,0-1.711,1.664l-.131,9.539A1.689,1.689,0,0,0,34.306,443.4Z" transform="translate(41.392 -429.646)" fill="#132539"/>
        <path id="_Path_28" data-name="&lt;Path&gt;" d="M300.816,440.346l10.782.123a1.692,1.692,0,0,0,1.713-1.667l.131-9.539a1.69,1.69,0,0,0-1.667-1.711l-10.782-.123a1.689,1.689,0,0,0-1.713,1.667l-.131,9.539A1.69,1.69,0,0,0,300.816,440.346Z" transform="translate(-299.15 -427.429)" fill="#132539"/>
        <g id="_Group_6" data-name="&lt;Group&gt;" transform="translate(2.336 1.399)">
          <path id="_Path_29" data-name="&lt;Path&gt;" d="M307.45,442.586l9.553.1.137-10.034-9.553-.107Z" transform="translate(-307.45 -432.55)" fill="#fff"/>
          <path id="_Path_30" data-name="&lt;Path&gt;" d="M315.6,434.118l-8.148-.087.022-1.481,9.553.107-.137,10.034-1.407-.019Z" transform="translate(-307.335 -432.55)" fill="#1f6f62"/>
        </g>
        <g id="_Group_7" data-name="&lt;Group&gt;" transform="translate(76.499 2.235)">
          <path id="_Path_31" data-name="&lt;Path&gt;" d="M40.44,445.644l8.351.118.137-10.036-8.351-.115Z" transform="translate(-40.44 -435.61)" fill="#fff"/>
          <path id="_Path_32" data-name="&lt;Path&gt;" d="M47.381,437.187l-6.941-.1.019-1.481,8.351.115-.137,10.036-1.407-.019Z" transform="translate(-40.322 -435.61)" fill="#1f6f62"/>
        </g>
      </g>
      <g id="_Group_8" data-name="&lt;Group&gt;" transform="translate(39.125 81.146)">
        <path id="_Path_33" data-name="&lt;Path&gt;" d="M102.47,512.835a2.984,2.984,0,0,1,2.828,2.957l.148,15.526a19.263,19.263,0,0,1-19.3,19.45L.127,550.241l3.954-39.26Q98.417,512.624,102.47,512.835Z" transform="translate(5.184 -510.401)" fill="#263238"/>
        <path id="_Path_34" data-name="&lt;Path&gt;" d="M364.509,509.425l.191.107c1.645.9,2.754,3.268,2.782,5.93l.241,25.259c.044,4.719-2.6,8.422-5.673,7.954l-6.413-.167q-3.668-33.589-.355-37.006C358.749,507.922,363.588,508.823,364.509,509.425Z" transform="translate(-353.708 -508.862)" fill="#263238"/>
      </g>
      <g id="_Group_9" data-name="&lt;Group&gt;" transform="translate(80.503 90.099)">
        <path id="_Path_35" data-name="&lt;Path&gt;" d="M103.223,560.937l31.539.432A2.393,2.393,0,0,0,137,559.552l3.4-14.668c.342-1.467-.377-2.7-1.615-2.722l-39.064-.533c-1.235-.016-1.987,1.2-1.689,2.675l3,14.755A2.393,2.393,0,0,0,103.223,560.937Z" transform="translate(-97.969 -541.629)" fill="#1f6f62"/>
        <g id="_Group_10" data-name="&lt;Group&gt;" transform="translate(3.966 4.386)">
          <path id="_Path_36" data-name="&lt;Path&gt;" d="M110.477,559.169l33.782.462a.875.875,0,0,0,.779-.727c.085-.41-.134-.751-.484-.754l-34.317-.47c-.35-.005-.579.328-.511.74A.867.867,0,0,0,110.477,559.169Z" transform="translate(-109.713 -557.68)" fill="#263238"/>
          <path id="_Path_37" data-name="&lt;Path&gt;" d="M112.615,569.812l32.763.448a.827.827,0,0,0,.749-.683h0a.537.537,0,0,0-.473-.71l-33.265-.456a.541.541,0,0,0-.5.7A.821.821,0,0,0,112.615,569.812Z" transform="translate(-111.392 -565.478)" fill="#263238"/>
          <path id="_Path_38" data-name="&lt;Path&gt;" d="M114.618,579.83l31.8.435a.79.79,0,0,0,.724-.642.511.511,0,0,0-.465-.669L114.4,578.51a.516.516,0,0,0-.489.656A.786.786,0,0,0,114.618,579.83Z" transform="translate(-112.963 -572.818)" fill="#263238"/>
          <path id="_Path_39" data-name="&lt;Path&gt;" d="M116.507,589.273l30.9.424a.76.76,0,0,0,.7-.607.487.487,0,0,0-.454-.631l-31.347-.429a.488.488,0,0,0-.475.618A.744.744,0,0,0,116.507,589.273Z" transform="translate(-114.448 -579.737)" fill="#263238"/>
          <path id="_Path_40" data-name="&lt;Path&gt;" d="M118.3,598.185l30.047.413a.724.724,0,0,0,.675-.574.465.465,0,0,0-.443-.6l-30.467-.415a.469.469,0,0,0-.467.585A.713.713,0,0,0,118.3,598.185Z" transform="translate(-115.851 -586.263)" fill="#263238"/>
        </g>
      </g>
      <path id="_Path_41" data-name="&lt;Path&gt;" d="M481.218,418.66l7.736.107a1.59,1.59,0,0,0,.044-3.181l-7.738-.107a1.59,1.59,0,0,0-.041,3.181Z" transform="translate(-471.84 -359.851)" fill="none" stroke="#132539" stroke-width="1"/>
      <path id="_Path_42" data-name="&lt;Path&gt;" d="M158.61,254.12l21.751,40.332,8.684.249,19.095.544-21.945-40.485C176.65,254.554,166.941,254.336,158.61,254.12Z" transform="translate(-101.689 -242.583)" fill="#fff" opacity="0.412"/>
      <path id="_Path_43" data-name="&lt;Path&gt;" d="M431.685,261.8l.3,31.028a2.95,2.95,0,0,0,2.825,2.924l8.78.385,9.116.4a2.972,2.972,0,0,0,3.03-2.358,2.868,2.868,0,0,0,0-1.142L451.1,268.572l-1.415-7.468a2.942,2.942,0,0,0-2.937-2.4l-12.135.117a2.963,2.963,0,0,0-2.929,2.978Z" transform="translate(-423.958 -245.911)" fill="url(#linear-gradient-2)"/>
      <path id="_Path_44" data-name="&lt;Path&gt;" d="M431.685,261.8l.3,31.028a2.95,2.95,0,0,0,2.825,2.924l8.78.385,9.116.4a2.972,2.972,0,0,0,3.03-2.358,2.868,2.868,0,0,0,0-1.142L451.1,268.572l-1.415-7.468a2.942,2.942,0,0,0-2.937-2.4l-12.135.117a2.963,2.963,0,0,0-2.929,2.978Z" transform="translate(-423.958 -245.911)" fill="#22364d" opacity="0.431"/>
      <path id="_Path_45" data-name="&lt;Path&gt;" d="M431.685,296.791l.208,21.729a2.95,2.95,0,0,0,2.825,2.924l8.78.385,9.116.4a2.972,2.972,0,0,0,3.03-2.358,2.867,2.867,0,0,0,0-1.142l-4.632-24.461c-.424-.03-.839-.063-1.235-.1a56.642,56.642,0,0,0-12.069.661C434.325,295.29,433.363,295.036,431.685,296.791Z" transform="translate(-423.87 -271.607)" fill="#22364d" opacity="0.431"/>
      <path id="_Path_46" data-name="&lt;Path&gt;" d="M116.765,254.375a3.359,3.359,0,0,1,3.019,2.189q2.951,7.943,13.108,35.645a1.966,1.966,0,0,1-1.907,2.607l-5.771-.164-13.428-.388-6.337-.186-27.768-.8-38.7-1.115a4.845,4.845,0,0,1-4.705-4.908l-8.066-30.631a3.371,3.371,0,0,1,3.323-4.454C47.214,252.875,104.433,253.883,116.765,254.375Z" transform="translate(9.676 -241.165)" fill="none" stroke="#132539" stroke-width="1"/>
      <path id="_Path_47" data-name="&lt;Path&gt;" d="M452.7,296.529l-17.89-.787a2.958,2.958,0,0,1-2.831-2.929l-.3-31.019a2.959,2.959,0,0,1,2.932-2.989l12.14-.115a2.957,2.957,0,0,1,2.937,2.41l6.044,31.921A2.961,2.961,0,0,1,452.7,296.529Z" transform="translate(-423.963 -245.903)" fill="none" stroke="#132539" stroke-width="1"/>
      <path id="_Path_48" data-name="&lt;Path&gt;" d="M437.472,249.5l8.1,38.534a2.427,2.427,0,0,1,.055.505l.279,29.251a2.584,2.584,0,0,1-2.558,2.609l-21.988.208a2.585,2.585,0,0,0-2.558,2.473l-1.06,24.6a2.585,2.585,0,0,1-5.167-.087l-.926-97.334a2.583,2.583,0,0,1,2.56-2.61l20.71-.2A2.581,2.581,0,0,1,437.472,249.5Z" transform="translate(-408.6 -237.735)" fill="none" stroke="#132539" stroke-width="1"/>
      <g id="_Group_11" data-name="&lt;Group&gt;" transform="translate(58.251 90.523)">
        <path id="_Path_49" data-name="&lt;Path&gt;" d="M17.844,559.351l17.357.06a1.692,1.692,0,0,0,1.713-1.667l.131-9.539a1.69,1.69,0,0,0-1.667-1.711l-14.914-.085a1.692,1.692,0,0,0-1.713,1.667l-2.571,9.561A1.688,1.688,0,0,0,17.844,559.351Z" transform="translate(50.073 -545.527)" fill="#a6bebd"/>
        <path id="_Path_50" data-name="&lt;Path&gt;" d="M260.787,556.1l17.357.06a1.69,1.69,0,0,0,1.711-1.667l-2.211-9.517a1.688,1.688,0,0,0-1.667-1.711l-15.015-.082a1.686,1.686,0,0,0-1.711,1.667l-.131,9.536A1.689,1.689,0,0,0,260.787,556.1Z" transform="translate(-259.12 -543.179)" fill="#a6bebd"/>
        <g id="_Group_12" data-name="&lt;Group&gt;" transform="translate(2.334 1.399)">
          <path id="_Path_51" data-name="&lt;Path&gt;" d="M267.44,558.336l16.127.041-2.2-10.012-13.788-.066Z" transform="translate(-267.44 -548.3)" fill="#1f6f62"/>
        </g>
        <g id="_Group_13" data-name="&lt;Group&gt;" transform="translate(68.72 2.285)">
          <path id="_Path_52" data-name="&lt;Path&gt;" d="M23.99,561.6l16.127.044.137-10.036-13.684-.066Z" transform="translate(-23.99 -551.54)" fill="#1f6f62"/>
        </g>
      </g>
      <path id="_Path_53" data-name="&lt;Path&gt;" d="M431.685,261.8l.3,31.028a2.95,2.95,0,0,0,2.825,2.924l8.78.385,9.116.4a2.972,2.972,0,0,0,3.03-2.358,2.868,2.868,0,0,0,0-1.142L451.1,268.572l-1.415-7.468a2.942,2.942,0,0,0-2.937-2.4l-12.135.117a2.963,2.963,0,0,0-2.929,2.978Z" transform="translate(-423.958 -245.911)" fill="none" stroke="#132539" stroke-width="1"/>
      <g id="_Group_14" data-name="&lt;Group&gt;" transform="translate(38.094 11.663)">
        <path id="_Path_54" data-name="&lt;Path&gt;" d="M183.72,362.97l.648.861.041.238Z" transform="translate(-122.914 -333.353)" fill="#22364d" opacity="0.431"/>
        <path id="_Compound_Path_3" data-name="&lt;Compound Path&gt;" d="M82.75,266.77l5.35,22.245a4.672,4.672,0,0,0,4.287,4.908l27.3.9,7.9.251,17.371.566,5.771.18h.005l2.115.074,5.766.194.738.025c.189.008.377.014.566.019l1.254.041c-.063-.016-.128-.033-.194-.052a21.846,21.846,0,0,0,4.612-.68,16.948,16.948,0,0,0-2.1-2.3c1.262.429,2.9,2.284,4.73,3.041a5.935,5.935,0,0,0,3.618-.036c-.593-1.842-7.487-5.487-9.077-6.107a18.6,18.6,0,0,0-6.006-1.241c-2.634-1.265-5.4-2.336-8-3.618-1.353-.667-2.716-1.32-4.074-1.981-1.555-8.014-3.968-18.125-5.255-25.489a3.78,3.78,0,0,0-1.344-2.746,3.524,3.524,0,0,0-1.738-.372,28.041,28.041,0,0,0-3.8.153,1.083,1.083,0,0,0-.776.314,1.1,1.1,0,0,0-.093.847q1.308,8.144,2.612,16.288a3.684,3.684,0,0,1,.15.924c-.049-.309-.1-.618-.15-.924a9.44,9.44,0,0,0-2.842-4.552,13.565,13.565,0,0,0-1.8-1.208A14.078,14.078,0,0,0,129.2,264c-.822-2.932-2.817-5.572-5.487-6.468a7.578,7.578,0,0,0-8.293,3.03,10.925,10.925,0,0,0-1.926,5.348c-3.424.022-6.812.044-9.069.005-1.842-.035-3.869-.008-5.268,1.088-1.549,1.205-1.743,3.252-1.741,5.072.027,4.85,2.555,15.466.355,15.573a8.158,8.158,0,0,1-6.012-1.842,7.2,7.2,0,0,1-1.962-4.224c-.637-3.992.339-8.413-2-11.832A8.509,8.509,0,0,0,82.75,266.77Zm72.944,26.188c.429-.167.861-.32,1.3-.443,1.044.582,2.088,1.161,3.142,1.716-.817-.186-1.519-.366-2.044-.541C157.293,293.423,156.492,293.182,155.694,292.958Zm-12.023-5.479c1.929.631,4.039,1.011,5.96,1.609a26.721,26.721,0,0,1,3.763,1.527c-.847.314-1.678.669-2.5,1.044-2.978-.831-5.481-1.741-6.716-3.4A8.563,8.563,0,0,1,143.671,287.48Z" transform="translate(-82.75 -254.58)" fill="#22364d" fill-rule="evenodd" opacity="0.431"/>
      </g>
      <path id="Path_504" data-name="Path 504" d="M655.085,303.15l-5.065.072,4.674,7.19-3.54.046,4.961,9.883-1.708-7.347,4.667-.059Z" transform="translate(-557.235 -243.277)" fill="#fff"/>
    </g>
    <path id="_Compound_Path_4" data-name="&lt;Compound Path&gt;" d="M408.458,373.26a.538.538,0,0,1-.274.746l-8.313,3.393a.537.537,0,0,0,.037,1.009l2.36.768a.536.536,0,0,0,.332,0l2.375-.768a.537.537,0,0,1,.643.262l.025.049a.537.537,0,0,1-.305.757l-2.675.9a.534.534,0,0,1-.337,0l-5.24-1.706a.54.54,0,0,0-.37.014l-9.273,3.785a.54.54,0,0,0-.162.891,8.406,8.406,0,0,1,1.293,1.606.533.533,0,0,0,.659.2l8.023-3.381a.537.537,0,0,1,.685.247l.028.053a.538.538,0,0,1-.269.743l-7.981,3.362a.534.534,0,0,0-.306.643,7.451,7.451,0,0,1,.311,2.127v4.1h-.582a.562.562,0,0,0-.143.019l-.017.005a.533.533,0,0,1-.635-.306,7.19,7.19,0,0,0-.874-1.531,7.392,7.392,0,0,0-5.892-2.925h-5.013a.537.537,0,0,0-.414.2,10.209,10.209,0,0,1-10.043,3.217l0,.009-.378-.1-.017,0h0l-.082-.021a8.9,8.9,0,0,1-1.095-.212l-2.583-.692,0-.01c-.131-.032-.257-.06-.392-.095l.354-1.067h0l.035-.1,1.756.471a.568.568,0,0,0,.077.016c3.347.435,4.362-1.034,4.882-2.6a4.1,4.1,0,0,0-3.1-5.152l-11.946-4.295a.538.538,0,0,1-.328-.675l.016-.047a.537.537,0,0,1,.692-.337l3.233,1.162a.537.537,0,0,0,.635-.793l-.98-1.545a.534.534,0,0,0-.293-.226l-8.965-2.809a.538.538,0,0,1-.349-.682l.017-.048a.538.538,0,0,1,.67-.344l9.459,2.943a.532.532,0,0,1,.294.226l2.775,4.379-.083.042,5.5,1.976.029.01a5.2,5.2,0,0,1,3.917,6.534,5.923,5.923,0,0,1-.741,1.523.538.538,0,0,0,.656.809,5.857,5.857,0,0,0,3.258-3.449c1.007-3.037-1.008-6.267-4.49-7.2l-5.219-1.74a.538.538,0,0,1-.341-.679l.016-.047a.537.537,0,0,1,.68-.341l5.217,1.739c4.137,1.11,6.524,4.961,5.323,8.587a6.385,6.385,0,0,1-.385.911.538.538,0,0,0,.86.621,7.312,7.312,0,0,0,1.774-2.858c1.316-3.974-1.207-8.17-5.624-9.354L344.155,367.9a.538.538,0,0,1-.351-.683l.016-.047a.537.537,0,0,1,.669-.344L371.2,375.1a9.242,9.242,0,0,1,6.247,5.258.543.543,0,0,0,.5.341h2.089a.528.528,0,0,0,.315-.1,9.888,9.888,0,0,1,2.012-1.139l27.921-11.476a.538.538,0,0,1,.681.249l.027.052a.537.537,0,0,1-.272.745l-27.83,11.438q-.391.166-.757.363a9.79,9.79,0,0,1,3.177,1.08.535.535,0,0,0,.476.025c.06-.027.119-.054.18-.079l10.84-4.425.011-.028.032.01,10.907-4.451a.536.536,0,0,1,.679.248Zm-25.8,14.024a.537.537,0,0,0,.2-1.052,8.741,8.741,0,0,0-2.33-.313h-2.527a.536.536,0,0,0-.5.334,8.2,8.2,0,0,1-.626,1.262l.092-.108a.537.537,0,0,1,.41-.19h4.2A8.644,8.644,0,0,1,382.66,387.284Zm-2.127-5.469h-2.01a.536.536,0,0,0-.53.607,7.721,7.721,0,0,1,.015,1.784.536.536,0,0,0,.532.6h1.993a9.658,9.658,0,0,1,6.727,2.644.537.537,0,0,0,.881-.555A7.9,7.9,0,0,0,380.533,381.814Z" transform="translate(-321.772 -300.423)" fill="#fff" fill-rule="evenodd" opacity="0.2"/>
    <path id="_Compound_Path_5" data-name="&lt;Compound Path&gt;" d="M408.458,373.26a.538.538,0,0,1-.274.746l-8.313,3.393a.537.537,0,0,0,.037,1.009l2.36.768a.536.536,0,0,0,.332,0l2.375-.768a.537.537,0,0,1,.643.262l.025.049a.537.537,0,0,1-.305.757l-2.675.9a.534.534,0,0,1-.337,0l-5.24-1.706a.54.54,0,0,0-.37.014l-9.273,3.785a.54.54,0,0,0-.162.891,8.406,8.406,0,0,1,1.293,1.606.533.533,0,0,0,.659.2l8.023-3.381a.537.537,0,0,1,.685.247l.028.053a.538.538,0,0,1-.269.743l-7.981,3.362a.534.534,0,0,0-.306.643,7.451,7.451,0,0,1,.311,2.127v4.1h-.582a.562.562,0,0,0-.143.019l-.017.005a.533.533,0,0,1-.635-.306,7.19,7.19,0,0,0-.874-1.531,7.392,7.392,0,0,0-5.892-2.925h-5.013a.537.537,0,0,0-.414.2,10.209,10.209,0,0,1-10.043,3.217l0,.009-.378-.1-.017,0h0l-.082-.021a8.9,8.9,0,0,1-1.095-.212l-2.583-.692,0-.01c-.131-.032-.257-.06-.392-.095l.354-1.067h0l.035-.1,1.756.471a.568.568,0,0,0,.077.016c3.347.435,4.362-1.034,4.882-2.6a4.1,4.1,0,0,0-3.1-5.152l-11.946-4.295a.538.538,0,0,1-.328-.675l.016-.047a.537.537,0,0,1,.692-.337l3.233,1.162a.537.537,0,0,0,.635-.793l-.98-1.545a.534.534,0,0,0-.293-.226l-8.965-2.809a.538.538,0,0,1-.349-.682l.017-.048a.538.538,0,0,1,.67-.344l9.459,2.943a.532.532,0,0,1,.294.226l2.775,4.379-.083.042,5.5,1.976.029.01a5.2,5.2,0,0,1,3.917,6.534,5.923,5.923,0,0,1-.741,1.523.538.538,0,0,0,.656.809,5.857,5.857,0,0,0,3.258-3.449c1.007-3.037-1.008-6.267-4.49-7.2l-5.219-1.74a.538.538,0,0,1-.341-.679l.016-.047a.537.537,0,0,1,.68-.341l5.217,1.739c4.137,1.11,6.524,4.961,5.323,8.587a6.385,6.385,0,0,1-.385.911.538.538,0,0,0,.86.621,7.312,7.312,0,0,0,1.774-2.858c1.316-3.974-1.207-8.17-5.624-9.354L344.155,367.9a.538.538,0,0,1-.351-.683l.016-.047a.537.537,0,0,1,.669-.344L371.2,375.1a9.242,9.242,0,0,1,6.247,5.258.543.543,0,0,0,.5.341h2.089a.528.528,0,0,0,.315-.1,9.888,9.888,0,0,1,2.012-1.139l27.921-11.476a.538.538,0,0,1,.681.249l.027.052a.537.537,0,0,1-.272.745l-27.83,11.438q-.391.166-.757.363a9.79,9.79,0,0,1,3.177,1.08.535.535,0,0,0,.476.025c.06-.027.119-.054.18-.079l10.84-4.425.011-.028.032.01,10.907-4.451a.536.536,0,0,1,.679.248Zm-25.8,14.024a.537.537,0,0,0,.2-1.052,8.741,8.741,0,0,0-2.33-.313h-2.527a.536.536,0,0,0-.5.334,8.2,8.2,0,0,1-.626,1.262l.092-.108a.537.537,0,0,1,.41-.19h4.2A8.644,8.644,0,0,1,382.66,387.284Zm-2.127-5.469h-2.01a.536.536,0,0,0-.53.607,7.721,7.721,0,0,1,.015,1.784.536.536,0,0,0,.532.6h1.993a9.658,9.658,0,0,1,6.727,2.644.537.537,0,0,0,.881-.555A7.9,7.9,0,0,0,380.533,381.814Z" transform="translate(-221.147 -347.148)" fill="#fff" fill-rule="evenodd"/>
  </g>
</svg>
