<svg id="Group_163" data-name="Group 163" xmlns="http://www.w3.org/2000/svg" width="30" height="30" viewBox="0 0 30 30">
  <path id="Path_520" data-name="Path 520" d="M0,0H30V30H0Z" fill="none"/>
  <path id="Path_521" data-name="Path 521" d="M27,4.038a22.429,22.429,0,0,1-3.75,1.237c-1.4-1.581-3.479-1.669-5.475-.921A4.916,4.916,0,0,0,14.5,9.025v1.25a11.741,11.741,0,0,1-10-5s-5.227,9.291,5,13.75a12.32,12.32,0,0,1-7.5,2.5c4.135,2.254,8.641,3.029,12.542,1.9a13.756,13.756,0,0,0,9.564-9.677,17.3,17.3,0,0,0,.621-4.691c0-.311,1.887-3.465,2.272-5.016Z" transform="translate(0.5 0.975)" fill="none" stroke="#fff" stroke-linecap="round" stroke-linejoin="round" stroke-width="2"/>
</svg>
